<?xml version="1.0" encoding="UTF-8" standalone="no"?>
<!DOCTYPE svg PUBLIC "-//W3C//DTD SVG 1.1//EN"
 "http://www.w3.org/Graphics/SVG/1.1/DTD/svg11.dtd">
<!-- Generated by graphviz version 9.0.0 (20230911.1827)
 -->
<!-- Pages: 1 -->
<svg width="707pt" height="94pt"
 viewBox="0.00 0.00 707.35 94.49" xmlns="http://www.w3.org/2000/svg" xmlns:xlink="http://www.w3.org/1999/xlink">
<g id="graph0" class="graph" transform="scale(1 1) rotate(0) translate(4 90.49)">
<polygon fill="white" stroke="none" points="-4,4 -4,-90.49 703.35,-90.49 703.35,4 -4,4"/>
<!-- ring/ring&#45;devel -->
<g id="node1" class="node">
<title>ring/ring&#45;devel</title>
<g id="a_node1"><a xlink:href="./ring__ring-devel.svg" xlink:title="ring/ring&#45;devel">
<path fill="red" stroke="black" d="M131.4,-71.76C131.4,-73.89 101.95,-75.62 65.7,-75.62 29.45,-75.62 0,-73.89 0,-71.76 0,-71.76 0,-37 0,-37 0,-34.87 29.45,-33.14 65.7,-33.14 101.95,-33.14 131.4,-34.87 131.4,-37 131.4,-37 131.4,-71.76 131.4,-71.76"/>
<path fill="none" stroke="black" d="M131.4,-71.76C131.4,-69.63 101.95,-67.9 65.7,-67.9 29.45,-67.9 0,-69.63 0,-71.76"/>
<text text-anchor="middle" x="65.7" y="-49.33" font-family="Times,serif" font-size="14.00">ring/ring&#45;devel</text>
</a>
</g>
</g>
<!-- hephaistox/automaton&#45;core -->
<g id="node2" class="node">
<title>hephaistox/automaton&#45;core</title>
<g id="a_node2"><a xlink:href="./hephaistox__automaton-core.svg" xlink:title="hephaistox/automaton&#45;core">
<path fill="green" stroke="black" d="M699.35,-82.63C699.35,-84.76 654.95,-86.49 600.28,-86.49 545.61,-86.49 501.2,-84.76 501.2,-82.63 501.2,-82.63 501.2,-47.87 501.2,-47.87 501.2,-45.74 545.61,-44 600.28,-44 654.95,-44 699.35,-45.74 699.35,-47.87 699.35,-47.87 699.35,-82.63 699.35,-82.63"/>
<path fill="none" stroke="black" d="M699.35,-82.63C699.35,-80.5 654.95,-78.77 600.28,-78.77 545.61,-78.77 501.2,-80.5 501.2,-82.63"/>
<text text-anchor="middle" x="600.28" y="-60.2" font-family="Times,serif" font-size="14.00">hephaistox/automaton&#45;core</text>
</a>
</g>
</g>
<!-- automaton&#45;web&#45;dev.endpoint.web.dev&#45;handlers -->
<g id="node3" class="node">
<title>automaton&#45;web&#45;dev.endpoint.web.dev&#45;handlers</title>
<g id="a_node3"><a xlink:href="./automaton-web-dev.endpoint.web.dev-handlers.svg" xlink:title="automaton&#45;web&#45;dev.endpoint.web.dev&#45;handlers">
<ellipse fill="none" stroke="black" cx="333.85" cy="-18" rx="187.49" ry="18"/>
<text text-anchor="middle" x="333.85" y="-12.95" font-family="Times,serif" font-size="14.00">automaton&#45;web&#45;dev.endpoint.web.dev&#45;handlers</text>
</a>
</g>
</g>
<!-- automaton&#45;web&#45;dev.endpoint.web.dev&#45;handlers&#45;&gt;ring/ring&#45;devel -->
<g id="edge1" class="edge">
<title>automaton&#45;web&#45;dev.endpoint.web.dev&#45;handlers&#45;&gt;ring/ring&#45;devel</title>
<path fill="none" stroke="black" d="M223.62,-32.95C196.56,-36.63 168.17,-40.48 143.03,-43.89"/>
<polygon fill="black" stroke="black" points="142.67,-40.4 133.23,-45.22 143.61,-47.34 142.67,-40.4"/>
</g>
<!-- automaton&#45;web&#45;dev.endpoint.web.dev&#45;handlers&#45;&gt;hephaistox/automaton&#45;core -->
<g id="edge2" class="edge">
<title>automaton&#45;web&#45;dev.endpoint.web.dev&#45;handlers&#45;&gt;hephaistox/automaton&#45;core</title>
<path fill="none" stroke="black" d="M424.79,-34.13C445.72,-37.84 468.2,-41.82 489.84,-45.66"/>
<polygon fill="black" stroke="black" points="489.13,-49.09 499.59,-47.39 490.35,-42.2 489.13,-49.09"/>
</g>
</g>
</svg>
